<?xml version="1.0" encoding="UTF-8"?>
<svg id="Layer_1" data-name="Layer 1" xmlns="http://www.w3.org/2000/svg" viewBox="0 0 403.76 392.56">
  <defs>
    <style>
      .cls-1 {
        fill: #2b2b2b;
      }

      .cls-2 {
        fill: #f1fafc;
      }

      .cls-3 {
        fill: #897e6f;
      }

      .cls-4 {
        fill: #595140;
      }

      .cls-5 {
        fill: #7ac1bb;
      }

      .cls-6 {
        fill: #697339;
      }

      .cls-7 {
        fill: #e7e7e7;
      }

      .cls-8 {
        fill: #b5a690;
      }

      .cls-9 {
        fill: #1d1d1d;
      }

      .cls-10 {
        fill: #edaf00;
      }

      .cls-11 {
        fill: #9ac8d6;
      }

      .cls-12 {
        fill: #bed7e1;
      }

      .cls-13 {
        fill: #3d8c45;
      }

      .cls-14 {
        fill: #f2f2f2;
      }

      .cls-15 {
        fill: #f5f5f5;
      }

      .cls-16 {
        fill: #08473e;
      }

      .cls-17 {
        fill: #e1f9f6;
      }

      .cls-18 {
        fill: #484848;
      }

      .cls-19 {
        fill: #1a1a1a;
      }

      .cls-20 {
        fill: #555;
      }

      .cls-21 {
        fill: #1f5d4e;
      }
    </style>
  </defs>
  <path class="cls-1" d="M377.75,127.59c-9.61-22.73-23.38-43.14-40.91-60.67-17.53-17.53-37.95-31.3-60.67-40.91-23.52-9.95-48.52-14.99-74.29-14.99s-50.77,5.05-74.29,14.99c-22.73,9.61-43.14,23.38-60.67,40.91-17.53,17.53-31.3,37.95-40.91,60.67-9.95,23.52-14.99,48.52-14.99,74.29s5.05,50.77,14.99,74.29c9.61,22.73,23.38,43.14,40.91,60.67,12.42,12.42,36.74,14.67,51.84,23.17,6.22,3.5,2.2,14.94,8.83,17.74,23.52,9.95,49.4-21.56,75.17-21.56s49.89,31.51,73.41,21.56c7.53-3.19,5.44-12.99,12.45-17.08,14.13-8.24,36.51-12.11,48.23-23.83,17.53-17.53,31.3-37.95,40.91-60.67,9.95-23.52,14.99-48.52,14.99-74.29s-5.05-50.77-14.99-74.29ZM248.66,72.98c0,15.93-12.91,28.84-28.84,28.84h0c-15.93,0-28.84-12.91-28.84-28.84h0c0-15.93,12.91-28.84,28.84-28.84h0c15.93,0,28.84,12.91,28.84,28.84h0Z"/>
  <rect class="cls-1" x="186.11" y="39.28" width="67.42" height="67.42" rx="33.71" ry="33.71"/>
  <path class="cls-17" d="M308.3,41.24c-1.25-1.35-9.5-5.79-11.72-7-8.65-4.73-19.71-9.89-28.99-13.12-9.41-3.62-19.72-6.62-29.73-7.71-.6.24-1.23.4-1.89.32-28.06-3.19-56.68-5.91-84.04,3.21l-1.6-.23c-4.08.32-8.38,1.59-12.11,3.3-16.33,5.43-32.81,13.98-46.79,23.95,5.88,1.88,11.09,4.79,15.13,9.54,1.32-.95,2.61-2.02,4.13-2.66,5.23-1.38,10.55-1.75,15.96-1.1,6.06,1.16,10.98,4.81,14.31,9.91.37,1.54,1.87,5.95,3.09,6.61,3.9.69,7.82,1.24,11.77,1.64,2.48.85,6.88,3.44,8.82,5.22,1.35,1.24,3.81,5.58,4.21,5.84,1.76,1.13,5.98.19,8.14.53.67-.18,5.17-1.2,5.3-1.68,3.8-.44,2.47-.47,8.46-.44,6.73-.81,9.81,2.95,20.25,1.84,6.43-.3,5.4-.3,13.07-.3l12.61-2.79c5.04-2.35,4.16,0,10.18-8.11,2.48-3.7,2.38-2.87,5.57-4.77,8.38-5.02,7.81-5.79,8.23-5.37.95.93,5.77,7.03,7.18,8.18-.43-10.96,8.02-21.86,18.43-24.01,6.41.01,12.68.04,18.17,3.85,1.18.01,5.12-3.25,3.83-4.66Z"/>
  <rect class="cls-10" x="196.03" y="42.81" width="48" height="48" rx="24" ry="24"/>
  <g>
    <path class="cls-13" d="M256.79,100.43c.09-.82.28-1.84.55-3.09.47-2.23.96-4.53.58-6.72-.12-.66-.49-1.25-1.05-1.62-.41-.28-.9-.43-1.39-.43-.17,0-.34.02-.5.05-3.94.82-7.01,3.15-9.72,5.21-2.75,2.09-5.16,3.92-8.09,4.16-.17-.66-.37-1.45-.5-2.02-.35-1.43-.57-2.33-.78-2.88-.55-1.44-1.85-3.31-2.99-4.96-.39-.56-.88-1.27-1.17-1.73.62-1.79,3.32-6.66,4.25-7.87,8.69-11.26,40.66-32.24,51.82-34.02,1.46-.23,2.76-.35,3.97-.35,3.91,0,6.61,1.22,10.7,3.07l1.05.47c.6.27,1.23.4,1.88.4.6,0,1.2-.12,1.76-.35.05-.02.5-.19,1.82-.19,2.04,0,4.71.41,6.1.71l13.55,10.62-13.29,4.96s-.08.03-.12.05c-9.57,4.17-18.93,10.29-25.7,16.81-.65.62-1.74,1.95-3.46,4.06-1.03,1.26-2.52,3.08-3.18,3.78-.73.14-2.32.34-3.42.47-1.88.23-3.83.46-5.01.76-6.23,1.58-13.48,5.11-17.67,10.65Z"/>
    <path class="cls-1" d="M291.77,46.62c3.38,0,5.61,1.01,9.68,2.85.34.16.7.31,1.06.48.92.41,1.89.62,2.9.62.88,0,1.74-.16,2.56-.47.11-.02.43-.06,1.02-.06,1.61,0,3.7.29,5.04.54l9.61,7.53-9.15,3.41c-.08.03-.16.06-.25.1-9.83,4.28-19.46,10.58-26.42,17.3-.76.73-1.89,2.1-3.66,4.27-.77.94-1.82,2.23-2.53,3.05-.73.11-1.72.22-2.46.31-2.05.25-3.99.48-5.32.82-4.39,1.11-9.25,3.14-13.37,6.12.09-1.09.07-2.2-.12-3.32-.23-1.32-.99-2.49-2.1-3.25-.83-.56-1.8-.85-2.78-.85-.34,0-.67.03-1.01.1-4.49.93-7.79,3.44-10.71,5.66-1.9,1.44-3.38,2.53-4.78,3.14-.32-1.34-.54-2.16-.78-2.8-.61-1.59-1.74-3.28-3.26-5.48-.13-.18-.27-.39-.41-.59.92-1.96,2.75-5.2,3.41-6.09,3.78-4.9,13.34-12.74,24.35-19.98,10.96-7.2,21.13-12.35,25.91-13.11,1.33-.21,2.5-.32,3.58-.32M291.77,41.67c-1.31,0-2.74.12-4.36.38-11.98,1.91-44.49,23.41-53.4,34.96-1.06,1.37-5.13,8.48-4.86,9.77.19.93,3.6,5.06,4.41,7.19.43,1.12,1.44,6.34,1.88,6.47.36.04.72.05,1.07.05,7.51,0,11.56-7.9,18.96-9.44.83,4.73-3.9,11.82,1.1,14.86,2.63-7.3,11.32-11.9,18.49-13.72,2.16-.55,8.09-.95,9.05-1.41.74-.36,5.81-7,7.14-8.28,6.95-6.7,16.13-12.48,24.96-16.32l17.43-6.5-17.47-13.69c-1.25-.31-4.56-.89-7.19-.89-1.11,0-2.09.1-2.75.37-.26.11-.54.16-.82.16-.3,0-.59-.06-.87-.19-4.82-2.17-7.97-3.77-12.77-3.77h0Z"/>
  </g>
  <path class="cls-13" d="M362.26,244.62c-1.13,0-.44-2.18-.29-2.77.75-3.13,2.74-7.75,4.05-10.81,5.48-12.69,14.73-23.35,19.91-36.24-.35-.76-1.31.03-1.77.32-2.54,1.6-13.92,17.48-16.07,20.93-4.07,6.51-7.58,14.06-9.68,21.42l-1.64-8.54c-.87-13.99,12.49-36.98,25.71-42.53,11.84-4.97,9.9,3.99,8.89,12.19-2.84,22.94-12.88,25.77-26.08,41.07-1.18,1.37-2.68,3.18-3.03,4.96Z"/>
  <path class="cls-13" d="M160.24,216.27c-.07.29-.55.79-1.1.56-.72-.31-5.03-6.38-6.6-7.72-2.53-2.15-9.1-5.15-9.8-8.36-.32-1.45.37-3.97-.66-4.85-.98-.83-6.62-1.24-8.57-1.89-4.78-1.58-9.81-5.23-12.59-9.43-.51-.77-2.67-4.39-.58-4.39,6.01,0,10.22,6.73,17.55,3.82,5.44-2.16,4.37-11.65,4.2-16.44,2.24.04,3.85-1.79,6.2-1.12.46.13,5.45,6.26,6.12,7.21,3.11,4.4,5.83,10.72,5.83,16.19v26.42Z"/>
  <path class="cls-21" d="M82.42,272.36c1.89,1.56,6.84,6.42,7.79,8.44,2.1,4.47-.12,6.16-4.56,5.67-3.72-.41-4.62-3.78-6.85-5.82-3.71-3.39-8.06-6.16-13.23-4.65-1.05,1.16,4.53,3.84,5.23,4.4,2.15,1.74,7.41,9.58,2.76,10.46-5.13.97-11.82-3.8-16.41-5.61-6.47-2.55-14.37-4.14-21.3-4.3,1.29-2.85,4.36-4.03,7.01-5.37l15.56-3.16c-6.12-3.42-13.99-3.89-20.36-.82.9-4.68,5.5-7.11,9.78-8.11,11.87-2.76,25.33,1.21,34.6,8.87Z"/>
  <path class="cls-16" d="M87.03,207.74c.46,2.96-1.16,4.25-3.05,6.04-13.58,12.93-34.49,20.7-44.75,37.27l-5.59,10.64c1.37-17.29,9.34-35.6,23.71-45.91,8.83-6.34,19.06-7.18,29.68-8.03Z"/>
  <path class="cls-20" d="M179.03,79.59l-26.84,11.54.31-2.8-2.63,2-13.82-2.17,2.17,28.17c.62,8.07.37,16.19-.76,24.2l-2.97,21.13,17.72-8.77,14.93-1.68,18.9-1.56-7.01-70.06-26.84,11.54h0"/>
  <path class="cls-18" d="M155.19,151.93l-.32-61.6-18.82-2.17,3.79,39.45-5.36,34.05s6.23-5.41,20.71-9.73Z"/>
  <path class="cls-21" d="M107.6,227.35c2.75,2.45,4.06,6.45,6.12,7.93,1.98,1.42,4.6.76,7.08,2.28,1.44.88,3.37,3.1,4.24,4.57,5.9,10.02-1.97,14.58-11.5,13.42-2.74-11.18-13.52-11.88-21.86-16.98l1.97-7.16h-9.35c.28-9.52,15.65-9.16,21.51-5.82,1.14.65,1.16,1.18,1.81,1.76Z"/>
  <path class="cls-21" d="M82.73,265.99c-2.12-3.29-6.16-5.41-9.64-7.16l-13.58-3.75c8.32-1.08,17.23-1.33,24.39-6.16,3.91-2.64,2.51-4.23,8.07-2.36,4.71,1.59,11.1,4.35,14.08,8.49,7.81,10.88-12.2,9.4-18.13,9.99-1.3.13-4.26,1.51-5.19.95Z"/>
  <path class="cls-21" d="M366.12,282.05c-.55-.62,1.42-8.04,1.93-9.35,1.78-4.56,6.61-9.53,8.09-13.37.42-1.08.56-2,.43-3.15-2.46.13-3.29.93-4.84,2.56-4.18,4.42-5.6,7.42-8.02,12.67-.22.48-2.61,1.89-2.83,2.93-1.04-1.6.57-3.26.8-4.71.66-4.16.54-6.72,2.3-10.91,4.36-10.34,14.29-14.81,23.05-20.71.73,1.01-1.46,11.22-1.9,13.23-2.65,11.97-6.96,25.45-19.01,30.8Z"/>
  <path class="cls-16" d="M93.6,174.74c1.14,1.65-5.05,5.74-6.28,6.59-10.09,6.91-22.14,9.69-32.39,16.06-4.74,2.94-8.81,6.79-13.04,10.35.43-1.92,1.99-4.34,3.07-6.01,5.93-9.2,24.78-26.79,35.8-28.06,2.1-.24,11.83-.39,12.85,1.07Z"/>
  <path class="cls-16" d="M95.63,146.99c-7.9,11.76-24.64,10.44-36.24,13.57-2.97.8-6.33,2.59-9.24,3.69-.16-.17.44-2.19.73-2.57,2.13-2.86,8.56-7.96,11.52-10.08,5.75-4.12,12.57-8.17,19.96-8.8,2.73-.23,11.96-.09,14.03,1.38.88.63-.3,2.15-.75,2.82Z"/>
  <path class="cls-16" d="M73.81,85.54c1.82,6.39,1.26,16.98-1.37,23.12-2.57,6.01-9.13,10.68-12.34,17.94-1.18,2.66-1.04-.68-1.29-1.56-.78-2.79-2.44-6.76-2.62-9.51-.68-10.5,9.04-22.05,16.06-29.07.49-.49.48-1.2,1.55-.92Z"/>
  <path class="cls-21" d="M335.29,92.14c-.23,5.03-1.2,10.01-2.47,14.87-1.18,4.5-4.17,14.75-6.22,18.55-1.93,3.57-7.98,6.05-11.67,7.31,2.46-9.32,4.59-18.8,4.52-28.51,4.68-3.21,8.5-7.5,13.15-10.79.49-.34,2.31-1.87,2.69-1.43Z"/>
  <path class="cls-13" d="M334.55,226.1c2.61,2.39,7.58,9.14,9.45,12.3.64,1.09,2.58,4.46,2.85,5.42.31,1.08-.81,1.01-1.36.82-.23-.08-2.68-3.21-3.22-3.67-10.04-8.56-21.35-9.35-32.83-13.69-4.39-1.66-5.79-4.02-.72-6.21,7.07-3.05,20.15-.17,25.84,5.03Z"/>
  <path class="cls-21" d="M347.4,228.11l-3.31-6.74c-7.06-9.27-17.44-17.93-23.24-28.08-1.02-1.79-2.19-3.79-2.07-5.91,18.34,4.84,27.57,22.92,28.62,40.73Z"/>
  <path class="cls-21" d="M342.25,282.26c2.21,1.48,10.11,9.37,11.24,11.61.34.68.48,1.42-.3,1.38-6.45-4.14-14.56-4.48-22.11-4.74-2.02-.07-4.55-.24-6.49-.23-2.98.01-5.61.72-8.56.57,4.26-10.44,16.41-15.13,26.22-8.6Z"/>
  <path class="cls-16" d="M109.05,103.15c.12,1.23-.22,2.31-.7,3.43-2.32,5.32-12.99,12.29-18.41,14.62-6.66,2.86-14.17,3.81-20.52,7.28-.83-1.06,2.39-3.7,3.18-4.37,3.94-3.34,9.2-5.65,13.28-8.61,7.15-5.2,12.99-13.89,23.17-12.34Z"/>
  <path class="cls-21" d="M348.28,265.23c4.05,3.4,7.18,15.39,7.93,20.67-.87.87-3.48-3.28-4.1-3.88-6.09-5.82-11.44-7.91-17.88-12.4-3.05-2.13-7.79-5.12-2.23-7.11,5.92-2.12,11.47-1.31,16.28,2.72Z"/>
  <path class="cls-16" d="M72.72,166.46c-.29,1.5-2.65,1.26-3.16,1.8-6.94,7.21-15.1,14.06-22.06,21.67l-7.25,10.65c.85-5.83,2.82-12.68,5.4-17.98,5.44-11.18,15.08-15.21,27.07-16.14Z"/>
  <path class="cls-13" d="M82.35,238.57c.09,0,1.19-1.35.81.26-1.67,7.28-19.49,8.41-25.86,10.47-4.14,1.34-7.82,3.64-11.83,5.24l4.38-5.53c4.67-4.49,13.14-10.44,19.83-10.44,4.19,0,8.49.19,12.66,0Z"/>
  <path class="cls-21" d="M314.92,184.62c-1.67.82-2.34-.52-3.83-.85-4.05-.89-14.77-2.02-16.67-6.45-1.14-2.65-1.05-5.95,2.21-6.37,5.19-.68,17.39,7.95,18.3,13.66Z"/>
  <path class="cls-21" d="M318.78,180.76c-.42.49-2.19-1.5-2.52-1.88-4.27-5.04-5.51-15.15-4.05-21.48.52-2.25,1.66-3.87,3.5-1.91,5.06,5.38,2.92,18.38,3.07,25.27Z"/>
  <path class="cls-9" d="M224.1,78.93c-.08.1.18.81-.06,1.01l-.75.14c-12.58-1.73-25.34.82-38.03-.03-.62-.04-1.08.22-1.35-.57l40.18-.55Z"/>
  <path class="cls-19" d="M236.76,12.32c10.82,1.95,20.52,4.91,31.17,8.19l-.35.61c-9.09-3.16-20.24-5.92-29.73-7.71-.72.32-1.65.59-2.2,0l1.1-1.1Z"/>
  <path class="cls-5" d="M124.75,307.36c-2.18-.42-2.29-3.56-3.35-5.46-5.36-9.59-19.24-10.85-23.75-19.19-1.96-3.62-2.71-7.76-5.66-11.13h7.98c.48,0,4.13-.54,4.83-.68,5.38-1.12,8.35-4.17,11.24-8.58l28.8-4.51c3.22,1.94,9.46,3.65,13.21,4.4,14.68,2.87,31.92,4.54,46.79,3.3.37,0,.73,0,1.1,0,6.75.13,13.46.11,20.12-.08l-.3-.47c-.03-.26.01-.45.28-.55.45-.05.92.03,1.37,0,.1.28.2.5.29.49,10.44-.47,22.82-2.24,32.19-6,.36-.11.98-.79,2.2-1.1,5.27-1.35,33.41,2.93,39.31,5,3.31,1.16,5.61,3.78,9.8,5.06,3.71,1.13,8.24.82,11.05,1.61.61.17,4.55,3.44,4.79,4.02.43,1.03-.64.81-1.2.97-7.64,2.24-10.97,3.35-15.54,10.35-1.18,1.81-1.92,4.56-3.32,6.04-1.49,1.56-3.14,1.44-4.68,2.48-4.3,2.9-7.67,8.47-10.17,12.95"/>
  <path class="cls-14" d="M114.87,280.64c11.28,9.01,28.6,9.29,42.06,13.25-1.35.94-4.16,1.25-5.78,1.37-10.09.73-24.95-2.18-34.05-6.68-2.56-1.27-8.43-4.79-8.61-7.94-.03-.59.95-3.33,1.17-3.46,1.6-.98,3.77,2.31,5.21,3.45Z"/>
  <path class="cls-14" d="M255.32,294.16c-1.08-.92.35-.93.89-1.15,4.88-1.98,14.42-2.97,20.36-4.76,8.32-2.5,16.11-5.7,21.86-11.7,6.03,5.1-2.11,10.14-7.21,12.4-8.75,3.88-22.67,6.58-32.43,5.75-.52-.04-3.34-.44-3.47-.55Z"/>
  <path class="cls-13" d="M139.15,132.87c-1.87-3.43.16-6.36-.61-8.75-2.06-6.41,2.82-10.23-1.11-18-2.35-4.64-.49-7.2-2.43-10.49-1.83-3.11-2.6-8.53-4.38-12.13-5.08-10.27-15.48-10.24-25.44-11.99-1.51-8.47-3.29-15.34-11.72-19.11-5.93-2.65-10.13-3.41-15.51.67-8.87,6.73-19.76,18.76-26.71,27.51-7.57,9.53-14.32,19.64-19.83,30.55-.33,1.31,1.06.59,2.17,1.14,9.43,4.64,13.14,19.76,14.35,29.15.14,1.06-.3,5.69,1.24,2.87,2.09-3.85,4.29-10.66,4.29-15.01,0-5.17-3.19-10.89-3.17-16.64.02-8.14,9.73-23.31,15.26-29.3,7.98-8.65,13.28-9.18,15.27,3.72,1.35,8.72-.03,14.53-.59,22.82-.02.35-.51,1.56.45,1.53.62-.02,7.82-7.35,9.22-8.41,2.93-2.22,7.71-4.94,11.28-5.75,15.1-3.45,17.86,9.62,8.69,19.15-12.2,12.67-33.67,10.9-45.16,23.09-.79.84-5.26,6.45-4.67,7.16,1.97-1.39,3.87-3.03,6.03-4.15,7.55-3.94,31.29-10.26,35.37.45,2.69,7.07-9.37,11-5.38,16.4,3.66,4.95,14.55,1.97,19.57.51-1.93,9.72.13,7.34,6.24,10.56,2.82,1.49,10.22,8.33,12.7,7.57,2.8-.86.75-13.74-.1-16.32-3.84-11.74-9.32-14.66-16.93-22.71-2.47-2.61-5.53-7.86.49-7.57,5.37.26,12.88,11.51,13.04-.46.04-3.29-3.71-9.22-6.04-11.44-.34-.32-3.62-.91-.84-1.45,12.74-2.48,17.62,20.76,7.97,27.23,4.15,4.03,1.41,3.95,3.3,9.36.4.3,1.68-8.96,1.68-9.41l1.34-3.14c1.33-.29-1.37-2.02-1.04-1.53,2.61,3.82-2.62-3.98,2.39-4.3-.71-6.75,2.77,2.97-.69-3.36Z"/>
  <path class="cls-7" d="M271.83,264.78l.3.78c.03-.27.28-.51.74-.74,1.37-1.44,4.61-5.41,6.52-2.46,1.72,2.65-3.46,5.64-3.07,8.37.08.11.61-.44.74-.49,2.26-1.83,9.95-2.21,7.15,2.47-.22.14-.42.21-.49.49.1.67-.49.94-.99.49-4.51,1.79-9.73,2.48-14.54,2.47-.24.43-.48.51-.74.25-2.95.25-5.92.5-8.87.25-.14.47-.35.47-.49,0-.57.22-1.17.27-1.77.27-6.3-.05-13.05-.45-19.18-1.75l-.45.41c-1.84-.42-3.69-.92-5.39-1.77l-.08-.61c-.98-.59-1.7-1.32-1.69-2.59.05-3.87,6.33-2.08,8.33-.72.84.58,1.51,1.88,2.73,1.83.06-1.27-.32-2.27-1.03-3.28-.87-1.24-3.72-3.11-4.04-4.1-.57-1.78.4-2.07,1.12-3.22.67-.62,2.46-.52,3.2,0,2.04.6,4.36,2.89,5.42,4.68.25.04.42.29.49.74.57-1.08.77-2.43.61-4.03"/>
  <polygon class="cls-18" points="244.88 150.73 275.87 160.15 290.14 82.49 267.53 74.33 244.88 150.73"/>
  <polygon class="cls-4" points="240.99 117.64 260.42 103.44 267.53 74.33 238.86 76.83 240.99 117.64"/>
  <path class="cls-11" d="M267.53,74.33c-2.21,3.17-3.12,7.11-3.86,10.95-3.22,16.73-4.19,33.93-2.87,50.94.07.94.1,2.03-.58,2.65-.59.53,6.58,11.59,4.36,12.01-16.61,3.09-40.43-10.04-56.99-8.81,3.66-1.09,5.8-3.89,6.85-7.71,1.05-3.82.92-7.86,1-11.83.27-13.27,3.1-26.48,8.25-38.62.68-1.59,1.42-3.2,2.59-4.44,3.52-3.73,9.38-2.87,14.28-1.75.14,13.95.29,27.9.43,41.86,2.65-8.93,5.76-17.72,9.31-26.3,1.84-4.45,3.85-8.92,6.93-12.54,3.09-3.62,5.66-6.41,10.3-6.39Z"/>
  <path class="cls-12" d="M207.58,139.18l3.43,8.96s13.18,7.22,13.98,9.9c.98,3.26,4.75,48,4.75,48,0,0,5.66-2.39,11.44,12.18.23.58-.15,1.22-.77,1.3l-15.06,2.07s18.83-1.17,18.44,19.27c0,0,.18,19.65-2.99,24-3.17,4.35,33.88,13.46,64.55,10.29,30.67-3.17,34.83,1.19,16.23-6.33-18.6-7.52-19-25.13-19.79-30.37-.79-5.25,1.58-9.68-1.19-14.59-2.77-4.91-3.94-60.13-36.02-72.99,0,0-15.44,2.77-17.02-.4-1.58-3.17-.87-13.08,2.72-13.34s-42.7,2.04-42.7,2.04Z"/>
  <polygon class="cls-1" points="197.95 80.14 201.53 95.39 204 118.5 195.47 130.6 186.04 149.66 180.11 146.45 177.54 107.35 179.03 79.59 197.95 80.14"/>
  <polygon class="cls-3" points="224.1 78.93 197.95 80.14 204 118.5 215.43 120.48 224.1 78.93"/>
  <polygon class="cls-18" points="186.04 149.66 212.33 148.06 215.43 120.48 204 118.5 186.04 149.66"/>
  <path class="cls-1" d="M152.21,155.65c-.74,0-1.45-.3-1.97-.83-.59-.61-.87-1.46-.75-2.3l.83-5.93c.09-.62.38-1.19.84-1.62l3.8-3.58c.22-.21.47-.38.74-.5l9.97-4.56,4.42-3.62c.36-.3.8-.5,1.26-.58l10.98-1.96c.62-.11,1.27,0,1.82.3l12.66,7.04c.87.49,1.41,1.41,1.41,2.41v2.96l14.91,4.57c1.29.4,2.1,1.67,1.92,3.01-.18,1.34-1.31,2.34-2.66,2.38l-45.07,1.13-14.81,1.67c-.1.01-.21.02-.31.02ZM155.63,148.3l-.2,1.46,11.4-1.29c.08,0,.16-.01.24-.02l28.28-.71-.69-.21c-1.16-.35-1.94-1.42-1.94-2.63v-3.38l-10.39-5.78-9.31,1.66-4.14,3.39c-.18.15-.38.28-.6.37l-9.89,4.52-2.76,2.6Z"/>
  <path class="cls-6" d="M169.65,150v1.21l-9.41,13.04.26,11.71c.02,1.07.1,2.13.22,3.2l9.28,79.77,6.06-20.23s-2.08-14.09,5.08-15.28,4.03-15.02,4.03-15.02l9.61-16.08-9.55,2.6c-2.19.59-4.63-.13-5.64-1.67l-.4-.61c-.96-1.47-.3-3.23,1.55-4.13l10.29-4.99-9.73-3.94c-1.72-.7-1.8-2.48-.15-3.27l11.38-5.39-15.02,2.6-.79-6.26c-.43-3.42.82-6.83,3.52-9.63l2.9-3.01-13.5-4.61Z"/>
  <g>
    <path class="cls-12" d="M180.11,148.98c-2.01,1.91-5.73,1.16-6.92-1.38-.48-1.04-.57-2.22-.64-3.37-1.22-19-.88-38.11,1.01-57.05.16-1.61.35-3.26,1.09-4.68.66-1.26,3.09-4.32,4.38-2.89,1.13,1.25-.69,7.11-.87,8.71-.74,6.67-.83,13.39-.62,20.09.43,13.55,2.13,27.02,2.57,40.57Z"/>
    <path class="cls-12" d="M153.63,152.89c-3.22-.24-5.79-3.11-6.81-6.28-1.02-3.16-.8-6.59-.57-9.91,1.02-14.69,2.04-29.37,3.06-44.06.13-1.84.7-5.3,3.19-4.31,2.1.84.79,4.84.63,6.49-.67,6.6-1.27,13.21-1.61,19.84s-.44,12.95-.13,19.42c.08,1.72.98,18.73,2.24,18.82Z"/>
    <path class="cls-12" d="M152.21,152.89c-8.66,3.13-17.75,6.54-23.66,13.61,2.54.42,4.53,2.54,5.51,4.92s1.12,5,1.22,7.57c.45,10.88.58,21.76.7,32.65.05,4.52.1,9.03.15,13.55.19,16.38.37,32.82-1.67,49.07-5.06.56-10.13,1.13-15.19,1.69.64,1.4,2.21,2.12,3.69,2.53,1.26.35,2.56.58,3.85.77,10.3,1.57,20.84,1.59,31.15.06,5.31-.79,10.71-1.99,16-1.03,4.04.73,8.11,2.72,12.07,1.65-3.33-5.44-13.28-1.54-17.27-6.52-1.62-2.02-1.64-4.85-1.58-7.44.41-18.18.82-36.37,1.23-54.55.1-4.35.2-8.7-.08-13.03-.28-4.38-1.08-9.02-4.05-12.25-.85-.93-1.87-1.72-2.55-2.78-1.09-1.68-1.2-3.79-1.28-5.8-.26-6.56-.29-13.8,3.94-18.82,2.09-2.47,8.57-7.05,2.74-8.75-4.51-1.31-10.77,1.39-14.93,2.89Z"/>
  </g>
  <path class="cls-8" d="M183.91,170.92l42.76-3.29-1.68-9.59-3.81-5.85c-.54-.83-1.49-1.29-2.48-1.21l-41.68,3.64-2.18,3.08c-1.94,2.75-2.84,6.11-2.53,9.46l.58,6.35,11.01-2.6Z"/>
  <polygon class="cls-4" points="182.81 183.52 227.96 180.13 226.67 167.63 183.91 170.92 172.9 178.04 182.81 183.52"/>
  <path class="cls-8" d="M185.56,192.33l44.59-2.25-2.19-9.95-45.14,3.39-7.46,4.94c-1.41.93-1.91,2.75-1.18,4.27l.22.46c.76,1.58,2.59,2.32,4.23,1.71l6.93-2.57Z"/>
  <polygon class="cls-18" points="230.15 190.08 229.37 205.98 205.05 209.83 194.78 204.47 187.78 207.74 187.32 213.52 178.67 218.96 178.52 208.41 185.56 192.33 230.15 190.08"/>
  <path class="cls-2" d="M146.34,157.39c.45,19.46,1.74,38.85,2.93,58.27.62,9.7,2.01,19.37,1.8,29.11-.16,9.82-.64,19.58-2.48,29.31,0,0-.82.04-.82.04-1.4-4.81-2.34-9.64-3.14-14.48-1.53-9.66-2.52-19.38-2.29-29.16.11-4.88.3-9.76.34-14.64.1-9.76.32-19.52.74-29.27.46-9.75,1.03-19.51,2.11-29.22l.82.04h0Z"/>
  <path class="cls-2" d="M152.33,180.81c2.91,12.13,4.44,24.56,5.25,37,.8,11,.38,22.28-3,32.85,0,0-.27-.05-.27-.05.04-1.48.15-2.94.25-4.39.43-9.4.61-18.91.71-28.32-.08-6.55-.43-13.11-1.03-19.64-.49-5.82-1.22-11.61-2.17-17.38l.27-.06h0Z"/>
  <path class="cls-2" d="M248.48,167.41c21.86-1.68,27.61,18.29,30.01,35.96,1.7,13.53,2.2,27.08,3.68,40.58.77,8.83,7.45,16.17,16.07,18.73,2.8.9,9.29,2.66,12.17,3.49,0,0-.04.82-.04.82-.72.14-1.44.22-2.16.32-5.14.48-10.4.82-15.48-.34-10.04-2.19-18.79-11.78-19.05-22.45-.02-.31-.07-2.32-.08-2.69-.11-12.66.34-25.35-.49-37.93-.8-10.39-1.85-22.64-9.67-30.2-2.91-2.75-6.85-4.38-10.82-5.06-1.36-.22-2.74-.35-4.14-.42v-.83h-.01Z"/>
  <path class="cls-2" d="M227.8,166.93c8.76-.85,16.4,4.83,21.19,11.73,11.12,16.25,13.75,36.49,14.96,55.7.41,7.63-.21,15.34-1.78,22.82-.06.21-.29,1.36-.35,1.6,0,0-.06.27-.06.27l-.03.13c-.03.1-.09.28-.13.38-.08.21-.18.19-.03.51.33.61,1.19,1.19,1.92,1.59,1.95,1.05,4.47,1.82,7.01,2.46,2.56.65,5.22,1.17,7.92,1.71l.05.82c-1.36.41-2.72.69-4.11.93-7.28,1.32-20.78,1.18-20.18-9.25,0,0,.04-.37.04-.37l.35-3.92c.46-6.11,1-13.62,1.36-19.72.65-10.55-.04-21.23-2.05-31.61-2.04-10.16-5.19-20.76-12.32-28.49-3.56-3.82-8.45-6.36-13.76-6.48,0,0-.02-.83-.02-.83h0Z"/>
  <path class="cls-2" d="M235.95,77.69c-1.05.63-1.79,1.78-2.44,2.79,0,0-.89,1.67-.89,1.67l-.73,1.75c-.66,1.7-1.2,3.68-1.61,5.47-.13.46-.32,1.39-.4,1.86-.45,2.12-.89,5.36-1.15,7.54-.49,4.98-.77,10.27-.66,15.28.03,5.02-.14,10.31-.33,15.33-.08,2.56-.22,5.13-.51,7.72l-.27.02c-.97-5.09-1.53-10.23-1.71-15.4-.28-5.82.37-11.63.92-17.41.96-7.6,2.19-15.64,5.82-22.49.99-1.61,2.12-3.46,3.87-4.39,0,0,.1.25.1.25h0Z"/>
  <path class="cls-2" d="M231.73,77.69c-1.05.63-1.79,1.78-2.44,2.79,0,0-.89,1.67-.89,1.67l-.73,1.75c-.66,1.7-1.2,3.68-1.61,5.47-.13.46-.32,1.39-.4,1.86-.45,2.12-.89,5.36-1.15,7.54-.49,4.98-.77,10.27-.66,15.28.03,5.02-.14,10.31-.33,15.33-.08,2.56-.22,5.13-.51,7.72l-.27.02c-.97-5.09-1.53-10.23-1.71-15.4-.28-5.82.37-11.63.92-17.41.96-7.6,2.19-15.65,5.82-22.49.99-1.61,2.12-3.46,3.87-4.39,0,0,.1.25.1.25h0Z"/>
  <path class="cls-2" d="M262.66,77.75c-1.02.65-1.74,1.79-2.37,2.8l-.86,1.67-.7,1.75c-2.5,7.19-3.06,14.89-3.43,22.46-.18,5.09.14,10.18-.06,15.27-.26,5.15-.42,10.27-1.26,15.4,0,0-.38.02-.38.02-1.28-5.08-1.96-10.22-2.2-15.4-.34-5.19.32-10.36.84-15.52.24-2.55.65-5.2,1.03-7.72,0,0,.76-3.83.76-3.83.3-1.47.82-3.27,1.19-4.74.2-.61.72-2.16.93-2.79.62-1.79,1.5-3.69,2.4-5.37,1.03-1.62,2.18-3.45,3.97-4.37,0,0,.15.36.15.36h0Z"/>
  <path class="cls-2" d="M245.11,147.89c-2.35-5.09-4.01-8.41-9.33-10.68-.72-.28-1.42-.67-2.23-.68,1.13-1.39,3.43-1.45,5.08-1.24,5.72.8,9.11,7.5,6.47,12.59h0Z"/>
  <path class="cls-2" d="M230.27,147.89c-2.34-5.09-4.01-8.41-9.33-10.68-.72-.28-1.42-.67-2.23-.68,1.13-1.39,3.43-1.45,5.08-1.24,5.72.8,9.11,7.5,6.47,12.59h0Z"/>
  <path class="cls-4" d="M204,118.5l-26.47-11.14,1.5-27.76,4.54-2.74c3.48-2.1,7.9-1.83,11.09.69l3.29,2.6,6.06,38.36Z"/>
  <path class="cls-14" d="M137.67,267.2c-.28,1.14-2.42,1.03-3.15,1.79-3,3.11,4.57,5.69,6.71,6.49,12.76,4.74,27.45,5.31,40.78,7.67l.81,1.11c-11.49,1.19-24.02.55-35.36-1.8-4.49-.93-17.82-4.34-20.03-8.31-3.14-5.64,6.15-7.82,10.25-6.95Z"/>
  <path class="cls-12" d="M176.54,263.46s-12.04-15.21-11.68,0c.36,15.21,4.31,11.84,7.46,10.05,3.15-1.79,4.22-10.05,4.22-10.05Z"/>
  <path class="cls-14" d="M282.81,275.81c-5.77,6-34.23,9.9-43.03,10.65-10.53.9-21.2,1.32-31.65,0l6.4-1.58c17.37-2.19,42.61-2.95,58.29-10.52,2.15-1.04,5.26-2.06,3.85-4.97-.63-1.3-2.64-1.05-3.03-2.19,5.04-1.47,14.44,3.12,9.17,8.61Z"/>
  <path class="cls-14" d="M229.05,272.15c-12.87.46-25.53.65-37.98.55-6.63-.77-13.24-1.13-19.82-1.1-4.41-.34-8.82-.61-13.21-1.1,2.27,2.29,6.41,2.27,9.36,3.3l14.31,2.75c3.11.68,6.22.86,9.36.55.88.02,2.29-.34,2.75.55,5.52.49,11.03.49,16.51,0,5.12.25,10.42-.52,15.41-1.65,1.72.24,3.88.08,5.5-.55,3.36-.05,7.56-.59,10.46-2.2.65-.19,1.52-.85,2.2-1.1,1.13-.42,2.78-.27,3.3-1.65-6.07-.17-12.13.38-18.17,1.65ZM229.1,272.46c3.9-.29,7.82-.58,11.79-.82-3.92.3-7.85.58-11.79.82Z"/>
  <path class="cls-13" d="M316.3,210.49c-4.72-.36-8.83-1.47-13.13-3.38-2.52-1.12-12.8-6.91-13.46-9.12-.53-1.75,1.07-3.64,2.58-4.34,2.32-1.07,12.18-3.52,14.66-3.57,4.82-.11,9.85,2.97,12.19,7.12.49.88,2.39,4.66-.09,3.4-3.5-1.77-11.14-7.59-13.47-1.68,2.78.35,4.84,2.55,7.17,3.57,4.9,2.16,12.23,2.53,14.3,7.99-3.51-.19-7.26.26-10.73,0Z"/>
  <path class="cls-21" d="M342.45,250.15c-1.39,1.62,1.93,1.17,1.65,3.28-4.16.64-9.22.47-13.24,1.34-7.85,1.71-11.96,10.2-21.82,4.83-2.24-1.22-1.94-1.64-.45-3.43,9.85-11.8,20.39-13.75,33.86-6.02Z"/>
  <path class="cls-12" d="M228.95,221.03c1.65.07,3.55-.31,3.78-1.85.09-.61-.15-1.22-.38-1.79-1.22-2.98-2.58-6.15-5.28-7.91.46-.78,1.55-.79,2.45-.85.9-.06,2.02-.53,1.96-1.43-.07-.89-1.21-1.2-2.1-1.22-7.3-.16-14.27,3.26-21.57,3.41-.94.02-1.92,0-2.75.43-2.26,1.19-1.76,4.53-2.71,6.91-.79,1.99-2.7,3.36-3.53,5.33-.54,1.28-.59,2.74-1.19,4-.82,1.72-2.52,2.81-3.93,4.09-4.36,3.95-6.12,10.02-6.86,15.86-.75,5.84-.7,11.82-2.34,17.47-1.03-.64-1.25-2.03-1.36-3.24-.64-6.99-1.28-14.03-.49-21,.56-4.96,1.84-9.82,3.11-14.65.62-2.35,4.9-9.89,1.58-11.08-1.92-.69-3.16,1.3-4.41,2.4-1.6,1.4-3.63,2.3-5.11,3.83-1,1.04-1.63,2.37-2.25,3.68-.58,1.23-1.15,2.45-1.73,3.68-1,2.14-2.01,4.3-2.58,6.6-.84,3.42-.67,6.99-1.05,10.49-.75,6.83-3.64,13.49-2.89,20.32,5.2.42,10.4.84,15.6,1.27-.49.19-.85.96-.56,1.49.39.72,1.32.95,2.13,1.03,2.63.26,5.27-.18,7.91-.11,4.6.11,9.01,1.71,13.54,2.52,5.61,1,11.36.76,17.06.51,2.89-.12,5.79-.25,8.69-.37,2.79-.12,5.62-.25,8.28-1.11.56-.18,1.12-.41,1.54-.82.49-.49.72-1.18.91-1.85,2.97-10.13,3.5-20.97,1.53-31.34-.92-4.83-2.87-10.14-7.41-12.03-2.58-1.07-5.71-.89-7.95-2.5"/>
  <path class="cls-2" d="M176.15,80.14c-2.17,9.29-2.04,18.85-1.7,28.31.36,8.02,1.11,16.05,1.95,24.02.62,5.82,1.33,11.63,2,17.46-4.36-19.22-8.92-51.22-2.25-69.79h0Z"/>
  <path class="cls-2" d="M152.2,91.13c-1.45,9.9-2.11,19.9-2.58,29.88-.22,4.99-.33,9.99-.24,14.98.16,4.97.25,10.03,1.67,14.83-5.03-13.12-2.23-45.64,1.15-59.69h0Z"/>
  <path class="cls-1" d="M294.32,92.37l-1.46-10.27c-.14-1.01-.83-1.86-1.79-2.2l-22.63-8.16c-.07-.03-.14-.03-.22-.05-.09-.02-.18-.05-.28-.07-.17-.03-.34-.03-.51-.03-.04,0-.08,0-.13,0-.01,0-.02,0-.04,0l-28.64,2.49-39.73,3.22c-.93-.73-2.44-1.66-4.58-2.27-4.65-1.33-10.17-.64-16.38,2.03-11.46,4.93-20.93,9.25-23.52,10.44l-18.05-2.08c-.81-.09-1.63.18-2.22.74-.59.57-.9,1.36-.84,2.18l-.61,43.87-.76,27.97-5.22,4.26c-.83.68-1.31,2.1-.92,3.1.35.89,1.02,1.5,1.98,1.62.59.37,3.85,2.91,4.47,14.5.81,15.39,1.05,74.06,1.05,74.65,0,1.52,1.24,2.74,2.75,2.74h.01c1.52,0,2.75-1.24,2.74-2.76,0-2.42-.24-59.4-1.06-74.92-.5-9.45-2.73-14.36-4.82-16.89l3.3-2.69c.52-.43.87-1.03.98-1.69l3.85-23.73c.16-.97.21-1.94.15-2.92-.17-2.7-.69-6.34-1.04-8.53-.22-1.37-.34-2.75-.37-4.13l-.76-31.52,15.53,1.79c.5.06,1.01-.02,1.47-.24.11-.05,10.73-4.96,24.09-10.71,9.29-3.99,13.85-1.64,15.26-.59l5.75,36.45-10.81,19.16c-.37.66-.46,1.44-.23,2.17.22.72.74,1.32,1.41,1.66l17.03,8.37c.4.83,1.2,1.44,2.18,1.55.1.01.2.02.29.02.19,0,.38-.03.57-.06l2.63,1.29s.07.03.11.05l5,2.2,3.05,4.69,1.57,8.94,1.27,12.4c.01.1.03.21.05.31l2.12,9.59-.76,15.54c-.04.75.23,1.48.75,2.02l3.94,4.18,2.17,4.04,4.85-2.6-2.34-4.36c-.11-.21-.26-.41-.42-.58l-3.38-3.59.72-14.74c.01-.24,0-.49-.06-.73l-2.16-9.8-1.27-12.34c0-.06-.02-.13-.03-.19l-1.68-9.59c-.06-.37-.2-.71-.4-1.03l-2.54-3.9,39.61.98c9.73,1.16,17.43,6.26,22.88,15.15l4.69-2.88c-2.47-4.02-5.34-7.38-8.59-10.06l.53-3.95c-16.96-2.26-21.5-9.31-22.71-13,.27-.21.53-.43.79-.65,4.44-3.67,3.97-9.79,3.42-16.87-.22-2.84-.45-5.77-.41-8.88.09-8.23,3.32-26.98,4.67-34.47l18,6.49,1.07,7.52-8.49,11.69c-.56.77-.68,1.76-.33,2.64.27.68.8,1.21,1.45,1.5l-2.82,1.33c-.74.35-1.29,1.01-1.49,1.81l-3.31,12.92c-.25.96.04,1.97.75,2.66.3.29.65.5,1.04.63l-1.96,1.59c-.65.52-1.02,1.31-1.02,2.14v15.41c0,.76.32,1.49.87,2.01.56.52,1.3.79,2.07.74l12.2-.83c1.69-.11,2.93-1.74,2.47-3.47-.34-1.29-1.62-2.1-2.94-2.01l-9.16.62v-11.16l10.56-8.55c1.11-.9,1.36-2.51.52-3.72-.69-1-2-1.36-3.17-1.02l-5.7,1.66,1.79-7,9.27-4.38c1.24-.59,1.88-2.01,1.43-3.36-.33-.99-1.23-1.67-2.26-1.86l-3.25-.59,6.58-9.05c.42-.58.6-1.3.5-2.01ZM254.84,78.2c-2.35,3.14-5.38,8.71-9.4,18.72-.8,1.98-1.64,4.18-2.45,6.37l-1.25-23.95,13.1-1.14ZM208.8,143.33l-12.25-6.02,9.85-17.46c.31-.54.42-1.17.32-1.78l-5.59-35.42,19.61-1.59c-2.17,9.02-8.96,38.19-11.95,62.27ZM259.48,112.44c-.04,3.35.21,6.54.43,9.36.43,5.63.78,10.11-1.27,12.05-1.08-.26-2.23.15-2.89,1.07-1.89,2.63-1.2,4.2-.29,5.05.13.12.26.23.4.32.66,2.17,2.01,4.99,4.76,7.73l-44.52-1.1-2.07-1.02c3.04-26.04,11-59.22,12.49-65.31l9.73-.79,1.98,37.92c.03,1.08.69,2.05,1.7,2.47.87.36,1.87.25,2.64-.29.59-.41.98-1.03,1.11-1.72.34-1.21,3.33-10.48,7.11-19.8,7.14-17.61,10.36-18.89,10.54-18.95l2.63-.92c-1.49,8.37-4.4,25.71-4.49,33.94Z"/>
  <path class="cls-1" d="M170,261.69h-.03c-1.48-.02-2.68-1.2-2.72-2.68l-1.65-60-6.38-14.54c-.12-.28-.2-.58-.22-.89l-1.5-19.11c-.04-.52.07-1.04.31-1.5l6.9-13.04c.63-1.2,2.05-1.76,3.33-1.32l9.89,3.41c.82.28,1.46.93,1.72,1.76s.13,1.73-.37,2.43l-1.78,2.52-1.67,13.51,7.09,5.11c1.2.87,1.5,2.53.68,3.77l-5.06,7.54,1.43,2.82,4.63-1.72c1.03-.38,2.2-.11,2.96.69.76.8.96,1.98.52,2.99l-6.85,15.64-.68,10.85c-.02.35-.11.68-.26,1l-6.32,13.46-1.23,24.69c-.07,1.47-1.28,2.62-2.75,2.62ZM164.44,182.68l6.41,14.61c.14.33.22.68.23,1.03l.76,27.64,3.24-6.91.68-10.81c.02-.32.1-.64.23-.93l4.44-10.14-.85.32c-1.31.49-2.78-.09-3.41-1.33l-3.27-6.44c-.45-.89-.39-1.95.17-2.78l4.47-6.67-6.25-4.51c-.81-.59-1.24-1.57-1.12-2.57l1.95-15.81c.06-.45.22-.88.48-1.25l.06-.09-4.19-1.44-5.42,10.25,1.4,17.85Z"/>
  <path class="cls-21" d="M115.45,191.44c4.55,2.61,9.47,7.61,11.33,12.61.69,1.86.98,5.89,2.1,7.26,1.11,1.36,4.6,2.35,6.02,3.34,5.54,3.89,9.79,8.43,8.7,15.81-1.03,6.95-6.22.74-9.76-.44-4.54-1.51-9.32-.01-13.77-1.65-3.86-1.42-7.65-7.18-11.44-9.48-3.82-2.32-8.44-2.58-12.8-2.34,2.05-5.49,7.1-9.81,11.4-13.6.37-.33,1.06.03.7-1.26-3.2-.43-5.85.49-8.28,2.44-.98.79-4.26,5.2-5.48,4.16,1.35-3.4-7.37-7.61-7.66-8.62-.52-1.78,3.93-8.16,5.48-9.25,6.14-4.34,17.25-2.53,23.44,1.01Z"/>
  <path class="cls-13" d="M161.44,86.66c-.91.91-1.69,1-1.93.7-4.11-5.09,1.66,2.83-4.61-.62-5.95-3.28-10.49-3.03-17.15-2.95-4.38-10.69-14.84-17.66-26.48-17.55-1.81-5.72-1.42-9.03,5.27-9.82,13.64-1.62,18.76,5.14,23.31,16.75,6.59.58,11.84-.81,17.6,3.31,5.94,4.25,3.73,3.46,5.86,9.87.34,1.02-1.67.11-1.87.31Z"/>
  <path class="cls-1" d="M201.88,11.01c25.77,0,50.77,5.05,74.29,14.99,22.73,9.61,43.14,23.38,60.67,40.91,17.53,17.53,31.3,37.95,40.91,60.67,9.95,23.52,14.99,48.52,14.99,74.29s-5.05,50.77-14.99,74.29c-5.62,13.29-12.66,25.78-21.04,37.37-5.96,8.24-12.59,16.02-19.87,23.3-17.53,17.53-37.95,13.3-60.67,22.91-23.52,9.95-48.12.72-73.89.72s-51.17,9.23-74.69-.72c-22.73-9.61-43.14-5.38-60.67-22.91-7.29-7.29-13.94-15.09-19.9-23.34-8.37-11.58-15.4-24.06-21.01-37.34-9.95-23.52-14.99-48.52-14.99-74.29s5.05-50.77,14.99-74.29c9.61-22.73,23.38-43.14,40.91-60.67,17.53-17.53,37.95-31.3,60.67-40.91,23.52-9.95,48.52-14.99,74.29-14.99M356.52,331.66c29.48-35.09,47.24-80.36,47.24-129.78C403.76,90.38,313.37,0,201.88,0h0C90.38,0,0,90.38,0,201.88c0,49.33,17.7,94.54,47.09,129.6l309.43.18Z"/>
  <path class="cls-16" d="M27.58,118.56c.65-.6,5.59,3.06,6.35,3.83,6.27,6.4,9.25,23.98,9.61,32.78.11,2.73.36,11.34-3.54,6.29-2.37-3.08-5.94-8.97-7.91-12.45-5.67-10.01-8.4-18.99-4.5-30.45Z"/>
  <path class="cls-16" d="M35.83,183.52c-.85,1.02-.94-.32-1.15-.78-3.84-8.52-4.44-13.14-11.77-20.16-1.08-1.03-7.33-5.42-7.45-5.88-.97-3.5,2.98-12.85,3.87-16.68,1.84,2.56,3.02,5.53,4.72,8.21,5.76,9.11,12.95,16.49,12.94,28.39,0,.81-.93,6.62-1.15,6.88Z"/>
  <path class="cls-16" d="M30.32,213.79l-6.43-11.97-12.59-16.62c-1-7.4,1.64-14.64,1.41-22.05,7.49,3.23,12.38,11.93,15.12,19.28,3.83,10.27,3.47,20.62,2.48,31.36Z"/>
  <path class="cls-16" d="M26.48,240.77c-1.5.32-.94-.45-1.36-1.1-4.75-7.18-15.15-17.33-15.15-25.6v-15.69c1.7.46,3.82,2.75,4.96,4.13,4.74,5.75,11.56,22.46,11.56,29.73v8.53Z"/>
  <path class="cls-21" d="M343.34,113.96c-.68.81-1.86,1.73-2.53,2.69l-7.17,5.21c2.24-8.04,6.08-17.22,6.62-25.57.11-1.74-.68-7.1-.51-7.64.65-1.99,9.73-7.09,11.79-8.51,2.28,1.47,2.1,4.42,1.94,6.79-.6,8.75-4.46,20.28-10.13,27.03Z"/>
  <path class="cls-16" d="M275.29,130.95c.45-3.02,7.67-4.49,10.29-6.23.93-.62,2.97-2.01,1.29-3.15-2.28-1.55-10.01,3.55-10.47,3.04.6-2.6,1.62-11.46,3.31-12.92,3.78-3.29,18.17-.17,19.71-4.53.15-.43.27-1.45.06-1.77-.94-1.39-14.64-.48-17.02-.05,1.7-3.95,5.27-10.59,9.15-12.59,2.13-1.1,10.24-.73,13.16-.64,1.95.06,4.2,1,6.03,1,2.88,0,6.87-.48,4.62-3.96-1.89-2.92-15.64-2.42-19.21-2.54-1.32-.98,13.44-12,16.8-12.15,4.54-.19,9.32,7.45,12.6,5.05,2.48-1.81-4.36-7.97-6.28-8.59.6-1.26,14.12-4.43,16.28-5.78,1.52-.11,3.46,1.53,4.64,2.47.89.71,7.72,7.69,7.72,8.26,0,1.03-.28.66-.7,1.01-2.47,2.07-6.04,3.72-8.65,5.64-13.38,9.89-40.52,33.78-49.22,47.17-1.4,2.16-2.43,3.99-2.02,6.71.1.67,1.64.29,2.2.02,1.8-.9,10.16-12.22,12.65-14.86,2.26-2.4,5.27-5.63,7.72-7.7.49-.42,3.49-2.89,3.86-2.47-.38,2.63-.24,5.88-.68,8.4-.34,1.92-3.88,15.18-4.52,15.85-1.87,1.96-14.14,5.64-17.5,6.72-4.88,1.57-9.9,2.75-14.7,4.59-.36.45-1.14-.53-1.14-.61,0-4.44-.61-11.35,0-15.41Z"/>
  <path class="cls-13" d="M368.62,151.34c-2.87,2.96-6.27,5.49-9.11,8.51,1.12-12.24,7.92-23.52,8.25-35.78-2.28-.36-3.45,1.19-4.42,3.01-3.68,6.86-4.64,18.92-7.06,26.52l-3.38,24.43-1.7-.33c-3.88-7.32-3.74-19.08-12.06-22.79l9.44,26.61c.77,4.09,1.46,8.84,1.3,12.99-.12,3.07-1.74.64-2.94-.89-9.82-12.51-16.81-31.81-15.52-47.76.2-2.42.64-7.63,3.68-7.9,3.32-.3,8.97,12.45,10.96,15.26,1.07,1.51,5.46,7.23,4.1,1.96-1.78-6.9-4.76-13.87-2.36-21.06l4-9.48c.69,1.63,3.34,12.26,3.87,12.66,1.58,1.18,3.21-4.25,3.3-5.23.57-6.18-2.44-9.89.02-17.04,1.17-3.4,6.34-12.52,10.36-8.2,2.52,2.72,9.71,17.17,10.01,20.81.73,8.98-4.76,17.56-10.73,23.72Z"/>
  <path class="cls-21" d="M380.21,172.84c-4.27,5.48-10.57,10.7-15.16,16.08-3.04,3.56-5.66,7.44-8.56,11.11-.65-.59-1.41-1.31-1.68-2.16-1.71-5.31,7.22-15.57,11.33-18.61.16-.79,11.8-13.94,8.51-13.9-1.35.35-2.72.81-3.85,1.65-3.96,2.96-7.58,8.77-11.54,12.13-.72.61-1.43,1.13-2.22,1.63-1.09-4.71,1.28-9.35,4.13-12.93,3.16-3.97,16.73-14.51,21.33-16.66,2.36-1.1,5.22-2.33,5.64,1.3.65,5.68-4.42,15.86-7.92,20.36Z"/>
  <path class="cls-2" d="M212.33,148.06c9.99-3.33,23.23.05,27.86,10.22,1.51,3.32,1.99,6.95,1.53,10.38-1.14-3.27-2.39-6.31-4.17-8.9-5.61-8.28-15.79-10.4-25.21-11.7h0Z"/>
  <path class="cls-2" d="M253.28,166.32c-2.48-7.1-4.45-14.02-12.44-16.28-.49-.1-1.01-.28-1.51-.1.11-.28.39-.45.63-.61,4.13-2,9.28.35,11.75,3.93,2.63,3.74,3.17,8.82,1.56,13.06h0Z"/>
  <path class="cls-2" d="M267.51,166.3c-3.18-6.31-5.92-13.3-12.82-16.14-.44-.13-.94-.42-1.41-.22.02-.14.14-.27.26-.35,1.87-1.11,4.28-.67,6.22.05,6.3,2.56,9.41,10.27,7.75,16.66h0Z"/>
  <g>
    <path class="cls-14" d="M218.48,306.56c.28.04,1.21.27.97.83-9.88,1.36-20.03,1.58-29.85-.28-.02-.18.37-.55.41-.55h28.47Z"/>
    <path class="cls-15" d="M339.73,360.48H64.03c-5.85,0-10.81-4.31-11.62-10.11l-4.18-29.77c-.91-6.49,4.13-12.29,10.69-12.29h285.92c6.56,0,11.6,5.8,10.69,12.29l-4.18,29.77c-.81,5.8-5.77,10.11-11.62,10.11Z"/>
    <g>
      <path class="cls-1" d="M78.2,349.65l-2.62-18.18h-.09l-2.66,18.18h-4.71l-4.71-30.52h4.75l2.66,20.23h.09l2.62-20.23h4.1l2.62,20.23h.09l2.66-20.23h4.62l-4.71,30.52h-4.71Z"/>
      <path class="cls-1" d="M99.96,349.65l-1-6.93h-5.1l-1,6.93h-4.62l5.28-30.52h5.89l5.28,30.52h-4.71ZM94.47,338.53h3.88l-1.87-12.86h-.13l-1.87,12.86Z"/>
      <path class="cls-1" d="M113.96,323.49v26.16h-4.62v-26.16h-4.93v-4.36h14.48v4.36h-4.93Z"/>
      <path class="cls-1" d="M126.43,323.4v8.63h6.76v4.27h-6.76v9.07h8.37v4.27h-12.99v-30.52h12.99v4.27h-8.37Z"/>
      <path class="cls-1" d="M145.05,336.75h-2.14v12.91h-4.62v-30.52h6.67c4.97,0,7.67,2.7,7.67,7.72v2.18c0,3.23-1.13,5.49-3.27,6.71l4.23,13.91h-4.88l-3.66-12.91ZM142.91,332.47h1.87c2.22,0,3.23-1.18,3.23-3.75v-1.57c0-2.57-1-3.75-3.23-3.75h-1.87v9.07Z"/>
      <path class="cls-1" d="M161.57,323.4v8.63h6.54v4.27h-6.54v13.34h-4.62v-30.52h12.78v4.27h-8.15Z"/>
      <path class="cls-1" d="M181.5,349.65l-1-6.93h-5.1l-1,6.93h-4.62l5.28-30.52h5.89l5.28,30.52h-4.71ZM176,338.53h3.88l-1.87-12.86h-.13l-1.87,12.86Z"/>
      <path class="cls-1" d="M201.86,345.29v4.36h-12.34v-30.52h4.62v26.16h7.72Z"/>
      <path class="cls-1" d="M217.16,345.29v4.36h-12.34v-30.52h4.62v26.16h7.72Z"/>
      <path class="cls-1" d="M239.7,325.67v.87l-4.45.44v-.96c0-2.09-.78-3.05-2.4-3.05-1.35,0-2.31.74-2.31,2.49v.65c0,1.7.87,3.1,3.88,5.84,4.1,3.79,5.49,6.28,5.49,9.81v1.48c0,4.49-2.83,6.85-7.06,6.85s-7.15-2.49-7.15-6.98v-2.01l4.45-.44v2.09c0,2.05.96,3.05,2.62,3.05,1.4,0,2.53-.74,2.53-2.92v-.96c0-1.92-.87-3.31-3.88-6.06-4.1-3.79-5.49-6.28-5.49-9.59v-.74c0-4.49,2.62-6.85,6.89-6.85s6.89,2.49,6.89,6.98Z"/>
      <path class="cls-1" d="M253,349.65v-13.3h-5.49v13.3h-4.62v-30.52h4.62v12.86h5.49v-12.86h4.62v30.52h-4.62Z"/>
      <path class="cls-1" d="M276.63,342.81c0,4.8-2.75,7.28-7.19,7.28s-7.11-2.49-7.11-7.28v-23.68h4.45v23.55c0,2.22,1,3.05,2.62,3.05s2.62-.83,2.62-3.05v-23.55h4.62v23.68Z"/>
      <path class="cls-1" d="M288.84,323.49v26.16h-4.62v-26.16h-4.93v-4.36h14.48v4.36h-4.93Z"/>
      <path class="cls-1" d="M304.19,323.49v26.16h-4.62v-26.16h-4.93v-4.36h14.48v4.36h-4.93Z"/>
      <path class="cls-1" d="M324.38,345.29v4.36h-12.34v-30.52h4.62v26.16h7.72Z"/>
      <path class="cls-1" d="M331.96,323.4v8.63h6.76v4.27h-6.76v9.07h8.37v4.27h-12.99v-30.52h12.99v4.27h-8.37Z"/>
    </g>
    <path class="cls-15" d="M262.82,389.8h-121.87c-12.45,0-23-9.17-24.73-21.5l-1.07-7.62h173.48s-1.07,7.62-1.07,7.62c-1.73,12.33-12.28,21.5-24.73,21.5Z"/>
    <path class="cls-1" d="M355.07,310.21c-2.58-2.96-6.31-4.66-10.23-4.66H58.92c-3.93,0-7.66,1.7-10.23,4.66-2.58,2.96-3.74,6.89-3.19,10.78l1.51,10.73,2.67,19.04c1,7.12,7.17,12.49,14.36,12.49h48.68l.76,5.44c.93,6.62,4.22,12.69,9.27,17.08,5.05,4.39,11.51,6.81,18.2,6.81h121.87c6.69,0,13.15-2.42,18.2-6.81,5.05-4.39,8.34-10.45,9.27-17.08l.76-5.44h48.68c7.19,0,13.36-5.37,14.36-12.49l4.18-29.77c.55-3.89-.62-7.82-3.19-10.78ZM284.81,367.91c-.74,5.3-3.38,10.16-7.42,13.67-4.04,3.51-9.22,5.45-14.57,5.45h-121.87c-5.36,0-10.53-1.94-14.57-5.45-4.04-3.51-6.68-8.37-7.42-13.67l-.63-4.47h167.12l-.63,4.47ZM352.79,320.22l-4.18,29.77c-.62,4.41-4.44,7.73-8.89,7.73H64.03c-4.45,0-8.27-3.32-8.89-7.73l-4.18-29.77c-.32-2.3.37-4.63,1.89-6.38s3.73-2.76,6.06-2.76h285.92c2.33,0,4.53,1.01,6.06,2.76s2.22,4.08,1.89,6.38Z"/>
    <g>
      <path class="cls-1" d="M150.5,375.08v-.03c0-3.33,2.56-5.94,6.02-5.94,2.33,0,3.83.98,4.84,2.38l-2.38,1.84c-.65-.82-1.4-1.34-2.5-1.34-1.6,0-2.72,1.35-2.72,3.02v.03c0,1.71,1.13,3.05,2.72,3.05,1.19,0,1.89-.55,2.58-1.39l2.38,1.7c-1.08,1.48-2.53,2.58-5.06,2.58-3.26,0-5.89-2.5-5.89-5.91Z"/>
      <path class="cls-1" d="M162.08,375.08v-.03c0-3.28,2.64-5.94,6.17-5.94s6.13,2.63,6.13,5.91v.03c0,3.28-2.64,5.94-6.17,5.94s-6.13-2.63-6.13-5.91ZM171.15,375.08v-.03c0-1.65-1.19-3.08-2.94-3.08s-2.89,1.4-2.89,3.05v.03c0,1.65,1.19,3.08,2.92,3.08s2.9-1.4,2.9-3.05Z"/>
      <path class="cls-1" d="M175.08,379.06l1.76-2.1c1.13.9,2.38,1.37,3.7,1.37.85,0,1.3-.29,1.3-.78v-.03c0-.47-.38-.73-1.92-1.09-2.43-.55-4.31-1.24-4.31-3.59v-.03c0-2.12,1.68-3.65,4.42-3.65,1.94,0,3.46.52,4.7,1.52l-1.58,2.23c-1.04-.73-2.19-1.13-3.2-1.13-.77,0-1.14.33-1.14.73v.03c0,.52.39.75,1.97,1.11,2.63.57,4.26,1.42,4.26,3.56v.03c0,2.33-1.84,3.72-4.62,3.72-2.02,0-3.95-.64-5.35-1.89Z"/>
      <path class="cls-1" d="M189.05,372.11h-3.43v-2.77h10.02v2.77h-3.43v8.65h-3.16v-8.65Z"/>
      <path class="cls-1" d="M199.5,369.26h3.05l4.86,11.5h-3.39l-.83-2.04h-4.4l-.82,2.04h-3.33l4.86-11.5ZM202.28,376.25l-1.27-3.25-1.29,3.25h2.56Z"/>
      <path class="cls-1" d="M213.05,369.34h5.4c1.75,0,2.95.46,3.72,1.24.67.65,1.01,1.53,1.01,2.66v.03c0,1.75-.93,2.9-2.35,3.51l2.72,3.98h-3.65l-2.3-3.46h-1.39v3.46h-3.16v-11.42ZM218.3,374.82c1.08,0,1.7-.52,1.7-1.35v-.03c0-.9-.65-1.35-1.71-1.35h-2.07v2.74h2.09Z"/>
      <path class="cls-1" d="M224.84,369.34h3.18v11.42h-3.18v-11.42Z"/>
      <path class="cls-1" d="M229.72,375.08v-.03c0-3.33,2.56-5.94,6.02-5.94,2.33,0,3.83.98,4.84,2.38l-2.38,1.84c-.65-.82-1.4-1.34-2.5-1.34-1.6,0-2.72,1.35-2.72,3.02v.03c0,1.71,1.13,3.05,2.72,3.05,1.19,0,1.89-.55,2.58-1.39l2.38,1.7c-1.08,1.48-2.53,2.58-5.06,2.58-3.26,0-5.89-2.5-5.89-5.91Z"/>
      <path class="cls-1" d="M245.87,369.26h3.05l4.86,11.5h-3.39l-.83-2.04h-4.4l-.82,2.04h-3.33l4.86-11.5ZM248.64,376.25l-1.27-3.25-1.29,3.25h2.56Z"/>
    </g>
  </g>
  <path class="cls-2" d="M227.96,224.6c6.68,4.29,12.18,11.05,12.45,19.35.77,7.72,1.12,16.51-4.26,22.77,0,0-.36-.17-.36-.17.31-1.96.53-3.81.67-5.65.26-3.73.1-7.39.41-11.14.53-5.51.81-11.18-2.05-16.11-1.72-3.27-4.32-6.11-7.1-8.72l.25-.31h0Z"/>
  <path class="cls-2" d="M212.19,212.05c-2.53-.61-5.24,1.36-5.42,3.7-.15,1.2.15,2.53-.03,4.06-.08,1.48-1.31,2.88-2.21,3.86-1.62,1.95-1.44,4.97-2.73,7.28-1.81,3.8-4.8,6.62-6.75,10.08-2.68,5.77-2.94,12.32-3.51,18.65-.18,2.65-.31,5.34-.58,8.07,0,0-.4.05-.4.05-2.59-8.56-3.72-18.33.32-26.66,2.16-4.3,6.31-7.39,8.56-11.41,1.43-2.25,1.56-5.47,3.62-7.41.94-.94,1.82-1.49,2.09-2.78.27-1.13.11-2.53.4-3.98.61-3.1,4.07-4.87,6.75-3.88l-.12.38h0Z"/>
  <path class="cls-2" d="M218.47,216.09c-6.35,6.84-4.89,10.2-3.5,18.61.32,2.4.14,5.12-.68,7.41-2.37,6.24-3.77,12.63-4.03,19.31-.07,2.22-.02,4.46.08,6.81l-.38.11c-3.54-6.26-4.03-14.22-1.55-20.97.79-2.17,1.98-4.31,2.88-6.36.87-2,1.12-3.93,1.03-6.11-.17-4.45-1.38-9.76,1.19-13.89,1.24-2.09,2.98-3.67,4.68-5.2l.29.28h0Z"/>
</svg>